<svg xmlns="http://www.w3.org/2000/svg" width="26.906" height="21.84" viewBox="0 0 26.906 21.84">
  <defs>
    <style>
      .cls-1 {
        fill: #45a745;
        fill-rule: evenodd;
      }
    </style>
  </defs>
  <path id="twitter.svg" class="cls-1" d="M231.147,5606.45c0.017,0.24.017,0.48,0.017,0.71A15.7,15.7,0,0,1,207,5620.38a11.677,11.677,0,0,0,1.332.07,11.026,11.026,0,0,0,6.848-2.36,5.525,5.525,0,0,1-5.157-3.82,7.112,7.112,0,0,0,1.041.08,5.811,5.811,0,0,0,1.452-.18,5.53,5.53,0,0,1-4.423-5.42v-0.07a5.5,5.5,0,0,0,2.493.7,5.516,5.516,0,0,1-1.708-7.37,15.707,15.707,0,0,0,11.374,5.77,6.2,6.2,0,0,1-.137-1.26,5.522,5.522,0,0,1,9.546-3.78,10.928,10.928,0,0,0,3.5-1.33,5.5,5.5,0,0,1-2.425,3.04,11.29,11.29,0,0,0,3.176-.85,11.993,11.993,0,0,1-2.766,2.85h0Z" transform="translate(-207 -5601)"/>
</svg>
